<svg xmlns="http://www.w3.org/2000/svg" height="24" viewBox="0 0 24 24" width="24">
  <path d="M 12.144531 0.144531 C 11.5 0.960938 10.941406 1.84375 10.335938 2.691406 C 10.125 2.992188 9.644531 3.480469 9.601562 3.855469 C 9.570312 4.175781 10.003906 4.472656 10.15625 4.726562 C 10.578125 5.441406 10.425781 6.238281 9.878906 6.832031 C 9.234375 7.527344 8.132812 7.984375 7.199219 7.691406 C 6.355469 7.429688 5.480469 6.707031 6.035156 5.816406 L 1.671875 4.871094 C 1.933594 5.359375 2.519531 5.71875 2.910156 6.109375 C 3.671875 6.871094 4.363281 7.667969 4.941406 8.582031 C 5.257812 9.082031 5.585938 10.363281 6.054688 10.660156 C 6.410156 10.886719 6.949219 10.933594 7.34375 11.082031 C 9.027344 11.703125 11.511719 12.539062 12.144531 14.398438 L 12.21875 14.398438 C 12.664062 12.640625 15.269531 11.703125 16.800781 11.15625 C 17.246094 10.996094 17.90625 10.929688 18.296875 10.667969 C 18.800781 10.328125 19.097656 9.039062 19.441406 8.507812 C 20.039062 7.589844 20.753906 6.808594 21.527344 6.035156 C 21.894531 5.667969 22.433594 5.320312 22.691406 4.871094 L 18.328125 5.816406 C 18.902344 6.796875 17.816406 7.625 16.871094 7.761719 C 14.726562 8.070312 12.90625 5.535156 14.835938 4 L 13.746094 2.328125 Z M 12.144531 0.144531 "/>
  <path d="M 14.035156 4.800781 L 14.109375 4.871094 L 14.035156 4.800781 M 1.792969 4.898438 L 1.84375 4.921875 L 1.792969 4.898438 M 22.472656 4.871094 L 22.546875 4.945312 L 22.472656 4.871094 M 2.109375 4.945312 L 2.183594 5.019531 L 2.109375 4.945312 M 22.15625 4.96875 L 22.207031 4.992188 L 22.15625 4.96875 M 2.472656 5.019531 L 2.546875 5.089844 L 2.472656 5.019531 M 13.964844 5.019531 L 14.035156 5.089844 L 13.964844 5.019531 M 21.816406 5.019531 L 21.890625 5.089844 L 21.816406 5.019531 M 2.8125 5.113281 L 2.859375 5.140625 L 2.8125 5.113281 M 10.328125 5.089844 L 10.398438 5.164062 L 10.328125 5.089844 M 21.503906 5.113281 L 21.550781 5.140625 L 21.503906 5.113281 M 3.128906 5.164062 L 3.199219 5.238281 Z M 3.128906 5.164062 "/>
  <path d="M 10.328125 5.164062 L 10.398438 5.238281 Z M 10.328125 5.164062 "/>
  <path d="M 21.140625 5.1875 L 21.1875 5.210938 L 21.140625 5.1875 M 3.492188 5.238281 L 3.5625 5.308594 L 3.492188 5.238281 M 20.800781 5.238281 L 20.871094 5.308594 L 20.800781 5.238281 M 3.832031 5.332031 L 3.878906 5.359375 L 3.832031 5.332031 M 20.484375 5.332031 L 20.535156 5.359375 L 20.484375 5.332031 M 4.144531 5.382812 L 4.21875 5.453125 L 4.144531 5.382812 M 20.121094 5.40625 L 20.167969 5.429688 L 20.121094 5.40625 M 4.484375 5.480469 L 4.535156 5.503906 L 4.484375 5.480469 M 13.890625 5.453125 L 13.890625 5.671875 L 13.964844 5.671875 L 13.890625 5.453125 M 19.78125 5.453125 L 19.855469 5.527344 L 19.78125 5.453125 M 4.847656 5.550781 L 4.898438 5.574219 L 4.847656 5.550781 M 19.464844 5.550781 L 19.515625 5.574219 L 19.464844 5.550781 M 5.164062 5.601562 L 5.238281 5.671875 Z M 5.164062 5.601562 "/>
  <path d="M 5.238281 5.601562 L 5.308594 5.671875 Z M 5.238281 5.601562 "/>
  <path d="M 19.128906 5.601562 L 19.199219 5.671875 L 19.128906 5.601562 M 5.503906 5.695312 L 5.550781 5.722656 L 5.503906 5.695312 M 18.761719 5.671875 L 18.835938 5.746094 L 18.761719 5.671875 M 5.867188 5.769531 L 5.914062 5.792969 L 5.867188 5.769531 M 18.449219 5.769531 L 18.496094 5.792969 L 18.449219 5.769531 M 10.351562 6.011719 L 10.375 6.0625 L 10.351562 6.011719 M 13.964844 6.035156 L 14.035156 6.109375 L 13.964844 6.035156 M 5.746094 6.109375 L 5.816406 6.183594 Z M 5.746094 6.109375 "/>
  <path d="M 5.746094 6.183594 L 5.746094 6.398438 L 5.816406 6.398438 Z M 5.746094 6.183594 "/>
  <path d="M 18.546875 6.183594 L 18.546875 6.472656 L 18.617188 6.472656 L 18.546875 6.183594 M 10.253906 6.253906 L 10.328125 6.328125 L 10.253906 6.253906 M 5.746094 6.398438 L 5.816406 6.472656 L 5.746094 6.398438 M 18.472656 6.617188 L 18.546875 6.691406 Z M 18.472656 6.617188 "/>
  <path d="M 22.109375 7.417969 C 22.203125 7.804688 22.226562 8.1875 22.183594 8.582031 C 21.851562 11.835938 17.957031 11.5625 15.710938 12.472656 C 13.992188 13.164062 12.863281 14.328125 12.144531 16 C 11.558594 13.980469 9.503906 12.679688 7.5625 12.167969 C 6.601562 11.910156 5.570312 11.882812 4.632812 11.539062 C 2.867188 10.898438 1.527344 9.457031 1.890625 7.492188 C 0.484375 7.96875 0.527344 10.175781 1.042969 11.273438 C 1.792969 12.878906 4.167969 13.953125 5.890625 14.035156 C 4.660156 15.769531 6.140625 18.042969 8.21875 17.578125 C 9.195312 17.363281 9.761719 16.394531 8.65625 15.855469 C 8.203125 17.183594 6.125 16.722656 6.453125 15.34375 C 6.707031 14.277344 7.535156 14.453125 8.289062 14.785156 C 9.546875 15.335938 10.796875 16.398438 11.34375 17.671875 L 11.054688 17.527344 C 11.335938 18.359375 10.898438 18.738281 10.570312 19.492188 C 10.015625 20.761719 9.785156 22.109375 8.507812 22.910156 C 9.066406 22.265625 9.480469 21.5625 9.671875 20.726562 C 9.203125 20.894531 9.054688 21.375 8.761719 21.746094 C 8.367188 22.246094 7.886719 22.59375 7.273438 22.761719 L 7.273438 22.691406 C 7.804688 22.414062 8.347656 21.863281 8.582031 21.308594 C 7.679688 21.503906 6.78125 21.671875 5.882812 21.324219 C 5.277344 21.089844 4.792969 20.648438 4.21875 20.363281 L 4.21875 20.289062 C 5.703125 20.828125 7.859375 21.109375 9.019531 19.710938 C 7.984375 19.789062 6.964844 19.8125 6.035156 19.273438 C 7.585938 19.300781 9.40625 19.335938 9.964844 17.453125 L 9.890625 17.453125 C 8.515625 19.65625 5.359375 19.195312 4.316406 16.945312 C 3.90625 16.070312 4.074219 15.195312 4.363281 14.328125 C 3.015625 13.839844 1.847656 13.210938 1.019531 12 L 0.945312 12 C 0.996094 12.648438 1.121094 13.503906 1.816406 13.746094 L 1.816406 13.816406 L 1.308594 13.746094 L 1.746094 14.328125 L 1.746094 14.398438 L 1.453125 14.398438 L 1.671875 14.691406 L 1.527344 14.910156 C 2.785156 15.578125 2.675781 16.589844 3.195312 17.746094 C 3.777344 19.042969 5.183594 20.082031 6.617188 20.144531 L 6.617188 20.21875 C 4.480469 20.210938 3.003906 18.550781 2.183594 16.726562 L 2.109375 16.726562 C 2.28125 17.445312 2.242188 18.203125 2.488281 18.914062 C 3.070312 20.582031 4.679688 21.808594 6.472656 21.890625 L 6.472656 21.964844 C 4.164062 22.804688 1.726562 19.9375 1.476562 17.890625 C 1.375 17.066406 1.835938 16.347656 1.816406 15.5625 C -0.109375 17.402344 0.980469 20.761719 2.980469 22.03125 C 4.496094 22.988281 6.25 22.84375 7.78125 22.035156 C 7.234375 22.558594 6.519531 23.019531 5.746094 23.054688 L 5.746094 23.128906 C 7.234375 23.128906 8.914062 22.640625 9.382812 21.019531 L 9.453125 21.019531 C 9.207031 22 8.417969 22.945312 7.492188 23.34375 L 7.492188 23.417969 C 9.027344 23.234375 10.140625 21.765625 10.546875 20.363281 L 10.617188 20.363281 C 10.636719 21.351562 10.949219 22.234375 11.492188 23.054688 C 11.625 23.253906 11.867188 23.765625 12.148438 23.765625 C 12.4375 23.765625 12.667969 23.257812 12.796875 23.054688 C 13.328125 22.214844 13.652344 21.292969 13.671875 20.289062 L 13.746094 20.289062 C 13.953125 21.8125 15.1875 22.972656 16.582031 23.417969 L 16.582031 23.34375 C 15.796875 22.808594 15.105469 22.097656 14.835938 21.164062 L 14.910156 21.164062 C 15.359375 22.695312 17.007812 23.128906 18.398438 23.128906 L 18.398438 23.054688 C 17.554688 23.015625 16.808594 22.457031 16.21875 21.890625 C 18.011719 22.976562 20.128906 23.007812 21.746094 21.515625 C 23.179688 20.191406 23.902344 16.984375 22.183594 15.5625 C 22.304688 16.394531 22.632812 17.097656 22.53125 17.964844 C 22.296875 19.96875 19.921875 22.78125 17.671875 21.964844 L 17.671875 21.890625 C 20.335938 21.828125 21.816406 19.355469 21.816406 16.945312 L 21.746094 16.945312 C 21.023438 18.675781 19.5 20.210938 17.527344 20.21875 L 17.527344 20.144531 C 19.03125 20.082031 20.34375 18.945312 20.921875 17.601562 C 21.398438 16.480469 21.308594 15.601562 22.472656 14.910156 L 22.328125 14.691406 L 22.617188 14.472656 L 22.253906 14.398438 L 22.253906 14.328125 L 22.761719 13.746094 L 22.183594 13.816406 L 22.183594 13.746094 C 22.917969 13.492188 23.039062 12.683594 23.054688 12 L 22.980469 12 C 22.308594 13.066406 21.066406 14.054688 19.78125 14.253906 C 19.914062 15.148438 20.210938 15.902344 19.839844 16.800781 C 18.808594 19.296875 15.894531 19.511719 14.328125 17.453125 L 14.253906 17.453125 C 14.855469 19.332031 16.875 19.496094 18.472656 19.128906 L 18.472656 19.199219 C 17.285156 19.539062 16.441406 19.71875 15.199219 19.710938 C 16.316406 21.054688 18.402344 20.800781 19.855469 20.363281 C 18.640625 21.472656 17.164062 21.75 15.636719 21.238281 C 15.832031 21.828125 16.398438 22.40625 16.945312 22.691406 L 16.945312 22.761719 L 15.59375 21.882812 L 14.546875 20.726562 C 14.683594 21.523438 15.152344 22.207031 15.636719 22.835938 C 14.359375 22.035156 14.183594 20.589844 13.582031 19.34375 C 13.25 18.660156 12.75 18.011719 13.15625 17.238281 C 13.710938 16.179688 14.816406 15.351562 15.855469 14.808594 C 16.441406 14.503906 17.015625 14.28125 17.511719 14.835938 C 18.132812 15.527344 17.625 16.746094 16.65625 16.71875 C 16.132812 16.703125 15.816406 16.253906 15.5625 15.855469 L 15.417969 15.855469 C 15.261719 16.074219 14.929688 16.375 14.910156 16.65625 C 14.859375 17.40625 16.339844 17.707031 16.871094 17.65625 C 18.027344 17.546875 18.851562 16.566406 18.816406 15.417969 C 18.804688 14.917969 18.628906 14.472656 18.398438 14.035156 C 19.875 13.730469 21.617188 13.164062 22.570312 11.925781 C 23.511719 10.703125 23.6875 8.238281 22.109375 7.417969 Z M 22.109375 7.417969 "/>
  <path d="M 15.34375 7.492188 L 15.417969 7.5625 L 15.34375 7.492188 M 22.109375 7.492188 L 22.183594 7.5625 L 22.109375 7.492188 M 17.453125 7.5625 L 17.527344 7.636719 Z M 17.453125 7.5625 "/>
  <path d="M 22.109375 7.5625 L 22.183594 7.636719 Z M 22.109375 7.5625 "/>
  <path d="M 1.84375 7.683594 L 1.867188 7.734375 L 1.84375 7.683594 M 7.054688 7.636719 L 7.128906 7.710938 L 7.054688 7.636719 M 8.507812 7.636719 L 8.582031 7.710938 L 8.507812 7.636719 M 15.78125 7.636719 L 15.855469 7.710938 L 15.78125 7.636719 M 17.238281 7.636719 L 17.308594 7.710938 L 17.238281 7.636719 M 7.34375 7.710938 L 7.34375 7.78125 L 7.5625 7.78125 Z M 7.34375 7.710938 "/>
  <path d="M 7.613281 7.734375 L 7.660156 7.757812 L 7.613281 7.734375 M 7.976562 7.734375 L 8.023438 7.757812 Z M 7.976562 7.734375 "/>
  <path d="M 8.074219 7.710938 L 8.074219 7.78125 L 8.289062 7.78125 L 8.074219 7.710938 M 16.121094 7.734375 L 16.167969 7.757812 Z M 16.121094 7.734375 "/>
  <path d="M 16.21875 7.710938 L 16.21875 7.78125 L 16.4375 7.78125 L 16.21875 7.710938 M 16.703125 7.734375 L 16.75 7.757812 Z M 16.703125 7.734375 "/>
  <path d="M 16.800781 7.710938 L 16.800781 7.78125 L 17.019531 7.78125 Z M 16.800781 7.710938 "/>
  <path d="M 1.84375 7.832031 L 1.867188 7.878906 Z M 1.84375 7.832031 "/>
  <path d="M 22.183594 8.074219 L 22.183594 8.363281 L 22.253906 8.363281 Z M 22.183594 8.074219 "/>
  <path d="M 12.21875 8.4375 C 11.949219 8.777344 11.398438 9.308594 11.332031 9.746094 C 11.261719 10.183594 11.976562 10.941406 12.289062 11.199219 C 12.535156 10.839844 13.15625 10.269531 13.167969 9.816406 C 13.179688 9.398438 12.515625 8.699219 12.21875 8.4375 Z M 12.21875 8.4375 "/>
  <path d="M 1.84375 8.558594 L 1.867188 8.605469 Z M 1.84375 8.558594 "/>
  <path d="M 23.054688 8.582031 L 23.128906 8.65625 L 23.054688 8.582031 M 1.84375 8.703125 L 1.867188 8.75 L 1.84375 8.703125 M 0.800781 8.800781 L 0.871094 8.871094 Z M 0.800781 8.800781 "/>
  <path d="M 6.472656 8.800781 C 6.21875 9.582031 6.164062 10.101562 7.128906 10.328125 C 7.316406 9.507812 7.3125 9.195312 6.472656 8.800781 M 17.671875 8.800781 C 16.933594 9.367188 16.875 9.511719 17.164062 10.398438 C 17.859375 10.011719 18.308594 9.523438 17.671875 8.800781 Z M 17.671875 8.800781 "/>
  <path d="M 22.109375 8.800781 L 22.183594 8.871094 Z M 22.109375 8.800781 "/>
  <path d="M 23.128906 8.800781 L 23.199219 8.871094 L 23.128906 8.800781 M 22.109375 8.871094 L 22.183594 8.945312 L 22.109375 8.871094 M 17.816406 8.945312 L 17.890625 9.019531 L 17.816406 8.945312 M 1.890625 9.019531 L 1.964844 9.089844 L 1.890625 9.019531 M 23.222656 9.066406 L 23.25 9.113281 L 23.222656 9.066406 M 0.726562 9.089844 L 0.800781 9.164062 L 0.726562 9.089844 M 17.890625 9.164062 L 17.964844 9.238281 L 17.890625 9.164062 M 22.035156 9.164062 L 22.109375 9.238281 Z M 22.035156 9.164062 "/>
  <path d="M 17.890625 9.238281 L 17.964844 9.308594 Z M 17.890625 9.238281 "/>
  <path d="M 1.964844 9.308594 L 2.035156 9.382812 Z M 1.964844 9.308594 "/>
  <path d="M 7.34375 9.382812 L 7.417969 9.453125 Z M 7.34375 9.382812 "/>
  <path d="M 16.800781 9.382812 L 16.871094 9.453125 L 16.800781 9.382812 M 17.964844 9.382812 L 18.035156 9.453125 L 17.964844 9.382812 M 21.964844 9.382812 L 22.035156 9.453125 L 21.964844 9.382812 M 7.34375 9.453125 L 7.417969 9.527344 Z M 7.34375 9.453125 "/>
  <path d="M 0.65625 9.527344 L 0.65625 9.816406 L 0.726562 9.816406 L 0.65625 9.527344 M 23.273438 9.527344 L 23.273438 9.816406 L 23.34375 9.816406 Z M 23.273438 9.527344 "/>
  <path d="M 16.871094 9.601562 L 16.945312 9.671875 L 16.871094 9.601562 M 18.035156 9.601562 L 18.109375 9.671875 Z M 18.035156 9.601562 "/>
  <path d="M 18.0625 9.722656 L 18.085938 9.769531 Z M 18.0625 9.722656 "/>
  <path d="M 5.601562 9.746094 L 5.671875 9.816406 L 5.601562 9.746094 M 6.109375 9.746094 L 6.183594 9.816406 L 6.109375 9.746094 M 11.222656 9.792969 L 11.25 9.84375 L 11.222656 9.792969 M 16.945312 9.816406 L 17.019531 9.890625 L 16.945312 9.816406 M 17.019531 10.035156 L 17.089844 10.109375 L 17.019531 10.035156 M 5.746094 10.109375 L 5.816406 10.183594 L 5.746094 10.109375 M 0.75 10.304688 L 0.777344 10.351562 L 0.75 10.304688 M 17.089844 10.253906 L 17.164062 10.328125 L 17.089844 10.253906 M 18.472656 10.253906 L 18.546875 10.328125 L 18.472656 10.253906 M 23.222656 10.304688 L 23.25 10.351562 Z M 23.222656 10.304688 "/>
  <path d="M 6.980469 10.328125 L 7.054688 10.398438 Z M 6.980469 10.328125 "/>
  <path d="M 7.054688 10.328125 L 7.128906 10.398438 L 7.054688 10.328125 M 23.128906 10.617188 L 23.199219 10.691406 L 23.128906 10.617188 M 6.183594 10.691406 L 6.253906 10.761719 L 6.183594 10.691406 M 6.472656 10.761719 L 6.546875 10.835938 L 6.472656 10.761719 M 17.816406 10.761719 L 17.890625 10.835938 L 17.816406 10.761719 M 6.691406 10.835938 L 6.761719 10.910156 L 6.691406 10.835938 M 17.601562 10.835938 L 17.671875 10.910156 L 17.601562 10.835938 M 23.054688 10.835938 L 23.128906 10.910156 L 23.054688 10.835938 M 6.910156 10.910156 L 6.980469 10.980469 L 6.910156 10.910156 M 17.382812 10.910156 L 17.453125 10.980469 L 17.382812 10.910156 M 7.128906 10.980469 L 7.199219 11.054688 L 7.128906 10.980469 M 7.34375 11.054688 L 7.417969 11.128906 L 7.34375 11.054688 M 16.945312 11.054688 L 17.019531 11.128906 L 16.945312 11.054688 M 7.5625 11.128906 L 7.636719 11.199219 L 7.5625 11.128906 M 16.726562 11.128906 L 16.800781 11.199219 L 16.726562 11.128906 M 16.507812 11.199219 L 16.582031 11.273438 L 16.507812 11.199219 M 8.144531 11.34375 L 8.21875 11.417969 L 8.144531 11.34375 M 19.710938 11.417969 L 19.78125 11.492188 L 19.710938 11.417969 M 4.507812 11.492188 L 4.582031 11.5625 L 4.507812 11.492188 M 8.507812 11.492188 L 8.582031 11.5625 L 8.507812 11.492188 M 4.726562 11.5625 L 4.800781 11.636719 L 4.726562 11.5625 M 19.273438 11.5625 L 19.34375 11.636719 L 19.273438 11.5625 M 5.019531 11.636719 L 5.089844 11.710938 L 5.019531 11.636719 M 15.417969 11.636719 L 15.492188 11.710938 L 15.417969 11.636719 M 19.054688 11.636719 L 19.128906 11.710938 L 19.054688 11.636719 M 5.359375 11.734375 L 5.40625 11.757812 L 5.359375 11.734375 M 9.019531 11.710938 L 9.089844 11.78125 L 9.019531 11.710938 M 18.691406 11.710938 L 18.761719 11.78125 L 18.691406 11.710938 M 5.746094 11.78125 L 5.746094 11.855469 L 5.964844 11.855469 L 5.746094 11.78125 M 18.230469 11.804688 L 18.277344 11.832031 L 18.230469 11.804688 M 6.304688 11.878906 L 6.351562 11.902344 L 6.304688 11.878906 M 17.792969 11.878906 L 17.84375 11.902344 L 17.792969 11.878906 M 6.667969 11.953125 L 6.714844 11.976562 L 6.667969 11.953125 M 17.453125 11.925781 L 17.527344 12 L 17.453125 11.925781 M 6.980469 12 L 7.054688 12.074219 Z M 6.980469 12 "/>
  <path d="M 14.691406 12 L 14.761719 12.074219 Z M 14.691406 12 "/>
  <path d="M 17.089844 12 L 17.164062 12.074219 L 17.089844 12 M 7.273438 12.074219 L 7.34375 12.144531 L 7.273438 12.074219 M 16.582031 12.144531 L 16.65625 12.21875 L 16.582031 12.144531 M 7.78125 12.21875 L 7.855469 12.289062 L 7.78125 12.21875 M 16.363281 12.21875 L 16.4375 12.289062 L 16.363281 12.21875 M 0.945312 12.289062 L 0.945312 12.507812 L 1.019531 12.507812 L 0.945312 12.289062 M 16.144531 12.289062 L 16.21875 12.363281 L 16.144531 12.289062 M 23.007812 12.414062 L 23.03125 12.460938 L 23.007812 12.414062 M 8.363281 12.4375 L 8.4375 12.507812 L 8.363281 12.4375 M 8.871094 12.65625 L 8.945312 12.726562 L 8.871094 12.65625 M 15.273438 12.65625 L 15.34375 12.726562 L 15.273438 12.65625 M 1.019531 12.726562 L 1.089844 12.800781 L 1.019531 12.726562 M 1.089844 12.945312 L 1.164062 13.019531 L 1.089844 12.945312 M 3.054688 13.089844 L 3.128906 13.164062 L 3.054688 13.089844 M 20.289062 13.382812 L 20.363281 13.453125 L 20.289062 13.382812 M 19.925781 13.527344 L 20 13.601562 L 19.925781 13.527344 M 4.289062 13.601562 L 4.363281 13.671875 L 4.289062 13.601562 M 19.710938 13.601562 L 19.78125 13.671875 L 19.710938 13.601562 M 4.507812 13.671875 L 4.582031 13.746094 Z M 4.507812 13.671875 "/>
  <path d="M 22.328125 13.671875 L 22.253906 13.816406 L 22.398438 13.816406 Z M 22.328125 13.671875 "/>
  <path d="M 1.238281 13.746094 L 1.308594 13.816406 L 1.238281 13.746094 M 1.527344 13.746094 L 1.601562 13.816406 Z M 1.527344 13.746094 "/>
  <path d="M 1.648438 13.769531 L 1.695312 13.792969 Z M 1.648438 13.769531 "/>
  <path d="M 1.746094 13.746094 L 1.816406 13.816406 L 1.746094 13.746094 M 4.726562 13.746094 L 4.800781 13.816406 L 4.726562 13.746094 M 22.183594 13.746094 L 22.253906 13.816406 L 22.183594 13.746094 M 22.398438 13.746094 L 22.472656 13.816406 L 22.398438 13.746094 M 19.054688 13.816406 L 19.128906 13.890625 L 19.054688 13.816406 M 5.238281 13.890625 L 5.308594 13.964844 L 5.238281 13.890625 M 18.835938 13.890625 L 18.910156 13.964844 L 18.835938 13.890625 M 3.417969 13.964844 L 3.492188 14.035156 L 3.417969 13.964844 M 5.527344 13.964844 L 5.601562 14.035156 L 5.527344 13.964844 M 18.546875 13.964844 L 18.617188 14.035156 L 18.546875 13.964844 M 20.582031 13.964844 L 20.65625 14.035156 L 20.582031 13.964844 M 5.816406 14.035156 L 5.890625 14.109375 L 5.816406 14.035156 M 20.21875 14.109375 L 20.289062 14.183594 L 20.21875 14.109375 M 4 14.183594 L 4.074219 14.253906 L 4 14.183594 M 20 14.183594 L 20.074219 14.253906 L 20 14.183594 M 4.21875 14.253906 L 4.289062 14.328125 Z M 4.21875 14.253906 "/>
  <path d="M 22.253906 14.328125 L 22.328125 14.398438 Z M 22.253906 14.328125 "/>
  <path d="M 1.527344 14.398438 L 1.601562 14.472656 L 1.527344 14.398438 M 7.128906 14.398438 L 7.199219 14.472656 L 7.128906 14.398438 M 7.417969 14.398438 L 7.492188 14.472656 L 7.417969 14.398438 M 22.449219 14.425781 L 22.496094 14.449219 L 22.449219 14.425781 M 7.636719 14.472656 L 7.710938 14.546875 L 7.636719 14.472656 M 19.78125 14.472656 L 19.855469 14.546875 L 19.78125 14.472656 M 4.21875 14.546875 L 4.289062 14.617188 L 4.21875 14.546875 M 7.855469 14.546875 L 7.925781 14.617188 L 7.855469 14.546875 M 5.527344 14.691406 L 5.601562 14.761719 L 5.527344 14.691406 M 15.925781 14.691406 L 16 14.761719 L 15.925781 14.691406 M 19.855469 14.691406 L 19.925781 14.761719 Z M 19.855469 14.691406 "/>
  <path d="M 22.328125 14.691406 L 22.398438 14.761719 Z M 22.328125 14.691406 "/>
  <path d="M 4.144531 14.761719 L 4.21875 14.835938 L 4.144531 14.761719 M 8.363281 14.761719 L 8.4375 14.835938 L 8.363281 14.761719 M 18.691406 14.761719 L 18.761719 14.835938 L 18.691406 14.761719 M 5.453125 14.910156 L 5.527344 14.980469 L 5.453125 14.910156 M 19.925781 14.980469 L 20 15.054688 L 19.925781 14.980469 M 4.097656 15.101562 L 4.121094 15.152344 L 4.097656 15.101562 M 6.472656 15.054688 L 6.546875 15.128906 L 6.472656 15.054688 M 18.761719 15.054688 L 18.761719 15.273438 L 18.835938 15.273438 L 18.761719 15.054688 M 17.746094 15.128906 L 17.816406 15.199219 Z M 17.746094 15.128906 "/>
  <path d="M 5.382812 15.34375 L 5.382812 15.5625 L 5.453125 15.5625 Z M 5.382812 15.34375 "/>
  <path d="M 6.425781 15.394531 L 6.449219 15.441406 L 6.425781 15.394531 M 20 15.417969 L 20 16 L 20.074219 16 Z M 20 15.417969 "/>
  <path d="M 6.425781 15.539062 L 6.449219 15.585938 Z M 6.425781 15.539062 "/>
  <path d="M 9.527344 15.492188 L 9.601562 15.5625 Z M 9.527344 15.492188 "/>
  <path d="M 1.816406 15.5625 L 1.890625 15.636719 L 1.816406 15.5625 M 6.425781 15.683594 L 6.449219 15.734375 L 6.425781 15.683594 M 18.761719 15.636719 L 18.761719 15.855469 L 18.835938 15.855469 L 18.761719 15.636719 M 12.21875 15.710938 L 12.289062 15.78125 L 12.21875 15.710938 M 22.183594 15.78125 L 22.253906 15.855469 L 22.183594 15.78125 M 1.746094 15.855469 L 1.816406 15.925781 L 1.746094 15.855469 M 2.617188 15.855469 L 2.691406 15.925781 L 2.617188 15.855469 M 5.480469 15.902344 L 5.503906 15.953125 L 5.480469 15.902344 M 12.074219 15.855469 L 12.21875 16 Z M 12.074219 15.855469 "/>
  <path d="M 12.144531 15.855469 L 12.21875 15.925781 Z M 12.144531 15.855469 "/>
  <path d="M 17.746094 15.925781 L 17.816406 16 L 17.746094 15.925781 M 6.472656 16 L 6.546875 16.074219 L 6.472656 16 M 21.308594 16 L 21.382812 16.074219 L 21.308594 16 M 22.253906 16 L 22.328125 16.074219 L 22.253906 16 M 1.671875 16.074219 L 1.746094 16.144531 L 1.671875 16.074219 M 2.691406 16.074219 L 2.761719 16.144531 L 2.691406 16.074219 M 5.527344 16.144531 L 5.601562 16.21875 Z M 5.527344 16.144531 "/>
  <path d="M 8.507812 16.144531 L 8.582031 16.21875 Z M 8.507812 16.144531 "/>
  <path d="M 4.074219 16.21875 L 4.144531 16.289062 Z M 4.074219 16.21875 "/>
  <path d="M 22.328125 16.21875 L 22.398438 16.289062 L 22.328125 16.21875 M 1.601562 16.289062 L 1.671875 16.363281 L 1.601562 16.289062 M 4.074219 16.289062 L 4.144531 16.363281 L 4.074219 16.289062 M 21.238281 16.289062 L 21.308594 16.363281 L 21.238281 16.289062 M 2.789062 16.414062 L 2.8125 16.460938 L 2.789062 16.414062 M 19.925781 16.363281 L 20 16.4375 Z M 19.925781 16.363281 "/>
  <path d="M 21.238281 16.363281 L 21.308594 16.4375 Z M 21.238281 16.363281 "/>
  <path d="M 22.398438 16.507812 L 22.472656 16.582031 L 22.398438 16.507812 M 1.527344 16.582031 L 1.601562 16.65625 L 1.527344 16.582031 M 4.144531 16.582031 L 4.21875 16.65625 L 4.144531 16.582031 M 16.144531 16.582031 L 16.21875 16.65625 L 16.144531 16.582031 M 7.199219 16.65625 L 7.273438 16.726562 L 7.199219 16.65625 M 7.855469 16.65625 L 7.925781 16.726562 L 7.855469 16.65625 M 16.363281 16.65625 L 16.4375 16.726562 L 16.363281 16.65625 M 16.945312 16.65625 L 17.019531 16.726562 L 16.945312 16.65625 M 19.855469 16.65625 L 19.925781 16.726562 L 19.855469 16.65625 M 21.164062 16.65625 L 21.238281 16.726562 L 21.164062 16.65625 M 2.835938 16.726562 L 2.910156 16.800781 L 2.835938 16.726562 M 2.109375 16.800781 L 2.109375 17.164062 L 2.183594 17.164062 L 2.109375 16.800781 M 4.21875 16.800781 L 4.289062 16.871094 L 4.21875 16.800781 M 22.472656 16.800781 L 22.472656 17.019531 L 22.546875 17.019531 L 22.472656 16.800781 M 22.910156 16.800781 L 22.980469 16.871094 L 22.910156 16.800781 M 19.78125 16.871094 L 19.855469 16.945312 L 19.78125 16.871094 M 21.84375 16.921875 L 21.867188 16.96875 L 21.84375 16.921875 M 21.089844 16.945312 L 21.164062 17.019531 L 21.089844 16.945312 M 1.453125 17.019531 L 1.453125 17.238281 L 1.527344 17.238281 Z M 1.453125 17.019531 "/>
  <path d="M 21.84375 17.066406 L 21.867188 17.113281 L 21.84375 17.066406 M 22.472656 17.019531 L 22.546875 17.089844 Z M 22.472656 17.019531 "/>
  <path d="M 22.980469 17.019531 L 23.054688 17.089844 Z M 22.980469 17.019531 "/>
  <path d="M 2.109375 17.164062 L 2.183594 17.238281 Z M 2.109375 17.164062 "/>
  <path d="M 2.328125 17.164062 L 2.398438 17.238281 L 2.328125 17.164062 M 21.019531 17.164062 L 21.089844 17.238281 Z M 21.019531 17.164062 "/>
  <path d="M 1.453125 17.238281 L 1.453125 17.746094 L 1.527344 17.746094 Z M 1.453125 17.238281 "/>
  <path d="M 0.898438 17.359375 L 0.921875 17.40625 L 0.898438 17.359375 M 23.078125 17.359375 L 23.101562 17.40625 L 23.078125 17.359375 M 3.054688 17.382812 L 3.128906 17.453125 L 3.054688 17.382812 M 12.074219 17.453125 L 12.144531 17.527344 Z M 12.074219 17.453125 "/>
  <path d="M 12.074219 17.527344 C 11.824219 18.257812 11.277344 18.839844 11.035156 19.5625 C 10.632812 20.777344 11.152344 22.679688 12.144531 23.492188 L 12.144531 19.34375 Z M 12.074219 17.527344 "/>
  <path d="M 16 17.527344 L 16.074219 17.601562 L 16 17.527344 M 17.238281 17.527344 L 17.308594 17.601562 L 17.238281 17.527344 M 2.207031 17.648438 L 2.230469 17.695312 L 2.207031 17.648438 M 7.25 17.625 L 7.296875 17.648438 L 7.25 17.625 M 7.902344 17.625 L 7.953125 17.648438 L 7.902344 17.625 M 12 17.601562 L 12.074219 17.671875 Z M 12 17.601562 "/>
  <path d="M 16.21875 17.601562 L 16.289062 17.671875 Z M 16.21875 17.601562 "/>
  <path d="M 16.339844 17.625 L 16.386719 17.648438 L 16.339844 17.625 M 16.921875 17.625 L 16.96875 17.648438 L 16.921875 17.625 M 21.769531 17.648438 L 21.792969 17.695312 Z M 21.769531 17.648438 "/>
  <path d="M 11.34375 17.671875 L 11.417969 17.746094 L 11.34375 17.671875 M 12.871094 17.671875 L 12.945312 17.746094 Z M 12.871094 17.671875 "/>
  <path d="M 13.019531 17.671875 L 13.089844 17.746094 Z M 13.019531 17.671875 "/>
  <path d="M 0.800781 17.746094 L 0.871094 17.816406 Z M 0.800781 17.746094 "/>
  <path d="M 1.453125 17.746094 L 1.453125 18.035156 L 1.527344 18.035156 L 1.453125 17.746094 M 11.394531 17.769531 L 11.441406 17.792969 L 11.394531 17.769531 M 12.800781 17.746094 L 12.871094 17.816406 Z M 12.800781 17.746094 "/>
  <path d="M 20.800781 17.746094 L 20.871094 17.816406 Z M 20.800781 17.746094 "/>
  <path d="M 23.128906 17.746094 L 23.199219 17.816406 Z M 23.128906 17.746094 "/>
  <path d="M 0.800781 17.816406 L 0.800781 18.472656 L 0.871094 18.472656 L 0.800781 17.816406 M 23.128906 17.816406 L 23.128906 18.546875 L 23.199219 18.546875 Z M 23.128906 17.816406 "/>
  <path d="M 22.496094 17.9375 L 22.519531 17.988281 Z M 22.496094 17.9375 "/>
  <path d="M 11.199219 17.964844 L 11.273438 18.035156 L 11.199219 17.964844 M 12.945312 17.964844 L 13.019531 18.035156 L 12.945312 17.964844 M 2.277344 18.085938 L 2.304688 18.132812 L 2.277344 18.085938 M 21.695312 18.085938 L 21.722656 18.132812 L 21.695312 18.085938 M 22.496094 18.085938 L 22.519531 18.132812 L 22.496094 18.085938 M 11.710938 18.253906 L 11.78125 18.328125 L 11.710938 18.253906 M 1.550781 18.375 L 1.574219 18.425781 L 1.550781 18.375 M 2.328125 18.398438 L 2.398438 18.472656 L 2.328125 18.398438 M 21.601562 18.398438 L 21.671875 18.472656 Z M 21.601562 18.398438 "/>
  <path d="M 0.800781 18.472656 L 0.871094 18.546875 Z M 0.800781 18.472656 "/>
  <path d="M 22.398438 18.472656 L 22.472656 18.546875 Z M 22.398438 18.472656 "/>
  <path d="M 23.128906 18.546875 L 23.199219 18.617188 Z M 23.128906 18.546875 "/>
  <path d="M 1.601562 18.617188 L 1.671875 18.691406 L 1.601562 18.617188 M 2.398438 18.617188 L 2.472656 18.691406 Z M 2.398438 18.617188 "/>
  <path d="M 5.964844 18.617188 L 6.035156 18.691406 Z M 5.964844 18.617188 "/>
  <path d="M 6.109375 18.691406 L 6.183594 18.761719 L 6.109375 18.691406 M 8.363281 18.691406 L 8.4375 18.761719 L 8.363281 18.691406 M 15.78125 18.691406 L 15.855469 18.761719 L 15.78125 18.691406 M 17.964844 18.691406 L 18.035156 18.761719 L 17.964844 18.691406 M 21.527344 18.691406 L 21.601562 18.761719 L 21.527344 18.691406 M 6.328125 18.761719 L 6.398438 18.835938 L 6.328125 18.761719 M 8.144531 18.761719 L 8.21875 18.835938 L 8.144531 18.761719 M 16 18.761719 L 16.074219 18.835938 L 16 18.761719 M 17.746094 18.761719 L 17.816406 18.835938 L 17.746094 18.761719 M 22.328125 18.761719 L 22.398438 18.835938 L 22.328125 18.761719 M 6.617188 18.835938 L 6.691406 18.910156 Z M 6.617188 18.835938 "/>
  <path d="M 6.691406 18.835938 L 6.761719 18.910156 Z M 6.691406 18.835938 "/>
  <path d="M 7.832031 18.859375 L 7.878906 18.886719 L 7.832031 18.859375 M 16.289062 18.835938 L 16.363281 18.910156 Z M 16.289062 18.835938 "/>
  <path d="M 16.363281 18.835938 L 16.4375 18.910156 L 16.363281 18.835938 M 17.382812 18.835938 L 17.453125 18.910156 Z M 17.382812 18.835938 "/>
  <path d="M 17.453125 18.835938 L 17.527344 18.910156 L 17.453125 18.835938 M 0.871094 18.910156 L 0.945312 18.980469 L 0.871094 18.910156 M 1.671875 18.910156 L 1.746094 18.980469 L 1.671875 18.910156 M 21.453125 18.910156 L 21.527344 18.980469 L 21.453125 18.910156 M 23.078125 18.957031 L 23.101562 19.007812 L 23.078125 18.957031 M 22.253906 18.980469 L 22.328125 19.054688 L 22.253906 18.980469 M 2.546875 19.054688 L 2.617188 19.128906 L 2.546875 19.054688 M 5.746094 19.128906 L 5.890625 19.273438 L 5.890625 19.128906 L 5.746094 19.128906 M 16 19.128906 L 16.074219 19.199219 L 16 19.128906 M 18.253906 19.128906 L 18.253906 19.199219 L 18.472656 19.199219 L 18.253906 19.128906 M 0.945312 19.199219 L 1.019531 19.273438 Z M 0.945312 19.199219 "/>
  <path d="M 5.9375 19.222656 L 5.988281 19.25 Z M 5.9375 19.222656 "/>
  <path d="M 6.109375 19.199219 L 6.183594 19.273438 L 6.109375 19.199219 M 8 19.199219 L 8.074219 19.273438 L 8 19.199219 M 16.21875 19.199219 L 16.289062 19.273438 L 16.21875 19.199219 M 18.035156 19.199219 L 18.109375 19.273438 Z M 18.035156 19.199219 "/>
  <path d="M 18.132812 19.25 L 18.15625 19.296875 Z M 18.132812 19.25 "/>
  <path d="M 18.183594 19.199219 L 18.253906 19.273438 Z M 18.183594 19.199219 "/>
  <path d="M 18.253906 19.199219 L 18.328125 19.273438 Z M 18.253906 19.199219 "/>
  <path d="M 6.398438 19.273438 L 6.472656 19.34375 L 6.398438 19.273438 M 7.710938 19.273438 L 7.78125 19.34375 L 7.710938 19.273438 M 16.484375 19.296875 L 16.535156 19.320312 L 16.484375 19.296875 M 17.648438 19.296875 L 17.695312 19.320312 L 17.648438 19.296875 M 22.980469 19.273438 L 23.054688 19.34375 Z M 22.980469 19.273438 "/>
  <path d="M 6.886719 19.371094 L 6.933594 19.394531 Z M 6.886719 19.371094 "/>
  <path d="M 6.980469 19.34375 L 6.980469 19.417969 L 7.273438 19.417969 Z M 6.980469 19.34375 "/>
  <path d="M 7.320312 19.371094 L 7.371094 19.394531 L 7.320312 19.371094 M 17.019531 19.34375 L 17.019531 19.417969 L 17.238281 19.417969 Z M 17.019531 19.34375 "/>
  <path d="M 1.890625 19.417969 L 1.964844 19.492188 L 1.890625 19.417969 M 6.472656 19.492188 L 6.546875 19.5625 L 6.472656 19.492188 M 17.601562 19.492188 L 17.671875 19.5625 L 17.601562 19.492188 M 22.035156 19.492188 L 22.109375 19.5625 L 22.035156 19.492188 M 22.910156 19.492188 L 22.980469 19.5625 L 22.910156 19.492188 M 6.761719 19.5625 L 6.835938 19.636719 L 6.761719 19.5625 M 17.382812 19.5625 L 17.453125 19.636719 L 17.382812 19.5625 M 7.054688 19.636719 L 7.128906 19.710938 Z M 7.054688 19.636719 "/>
  <path d="M 7.128906 19.636719 L 7.199219 19.710938 L 7.128906 19.636719 M 15.199219 19.636719 L 15.273438 19.710938 Z M 15.199219 19.636719 "/>
  <path d="M 16.992188 19.660156 L 17.042969 19.683594 L 16.992188 19.660156 M 7.5625 19.710938 L 7.5625 19.78125 L 7.855469 19.78125 Z M 7.5625 19.710938 "/>
  <path d="M 7.855469 19.710938 L 7.855469 19.78125 L 8.363281 19.78125 Z M 7.855469 19.710938 "/>
  <path d="M 8.363281 19.710938 L 8.363281 19.78125 L 8.726562 19.78125 L 8.363281 19.710938 M 15.710938 19.710938 L 15.710938 19.78125 L 16.507812 19.78125 L 15.710938 19.710938 M 22.835938 19.710938 L 22.910156 19.78125 L 22.835938 19.710938 M 10.933594 19.832031 L 10.957031 19.878906 Z M 10.933594 19.832031 "/>
  <path d="M 13.746094 19.78125 L 13.816406 19.855469 Z M 13.746094 19.78125 "/>
  <path d="M 5.527344 19.855469 L 5.601562 19.925781 L 5.527344 19.855469 M 10.398438 19.855469 L 10.472656 19.925781 L 10.398438 19.855469 M 19.128906 19.855469 L 19.199219 19.925781 L 19.128906 19.855469 M 5.089844 19.925781 L 5.164062 20 L 5.089844 19.925781 M 1.238281 20 L 1.308594 20.074219 L 1.238281 20 M 5.308594 20 L 5.382812 20.074219 L 5.308594 20 M 18.761719 20 L 18.835938 20.074219 L 18.761719 20 M 5.601562 20.074219 L 5.671875 20.144531 Z M 5.601562 20.074219 "/>
  <path d="M 6.109375 20.074219 L 6.109375 20.21875 L 6.253906 20.21875 Z M 6.109375 20.074219 "/>
  <path d="M 6.183594 20.074219 L 6.253906 20.144531 L 6.183594 20.074219 M 10.328125 20.074219 L 10.398438 20.144531 L 10.328125 20.074219 M 17.890625 20.074219 L 17.964844 20.144531 Z M 17.890625 20.074219 "/>
  <path d="M 17.964844 20.074219 L 17.890625 20.21875 L 18.035156 20.21875 Z M 17.964844 20.074219 "/>
  <path d="M 18.472656 20.074219 L 18.546875 20.144531 L 18.472656 20.074219 M 6.011719 20.167969 L 6.0625 20.195312 Z M 6.011719 20.167969 "/>
  <path d="M 6.304688 20.167969 L 6.351562 20.195312 Z M 6.304688 20.167969 "/>
  <path d="M 6.398438 20.144531 L 6.472656 20.21875 Z M 6.398438 20.144531 "/>
  <path d="M 6.519531 20.167969 L 6.570312 20.195312 L 6.519531 20.167969 M 17.574219 20.167969 L 17.625 20.195312 Z M 17.574219 20.167969 "/>
  <path d="M 17.722656 20.167969 L 17.769531 20.195312 Z M 17.722656 20.167969 "/>
  <path d="M 17.816406 20.144531 L 17.890625 20.21875 Z M 17.816406 20.144531 "/>
  <path d="M 18.085938 20.167969 L 18.132812 20.195312 L 18.085938 20.167969 M 4.144531 20.21875 L 4.21875 20.289062 L 4.144531 20.21875 M 19.925781 20.21875 L 19.925781 20.363281 L 20.074219 20.21875 Z M 19.925781 20.21875 "/>
  <path d="M 4.21875 20.289062 L 4.363281 20.4375 L 4.363281 20.289062 Z M 4.21875 20.289062 "/>
  <path d="M 10.253906 20.289062 L 10.328125 20.363281 L 10.253906 20.289062 M 13.695312 20.339844 L 13.722656 20.386719 L 13.695312 20.339844 M 13.890625 20.289062 L 13.964844 20.363281 Z M 13.890625 20.289062 "/>
  <path d="M 19.855469 20.289062 L 19.925781 20.363281 Z M 19.855469 20.289062 "/>
  <path d="M 4.507812 20.363281 L 4.582031 20.4375 L 4.507812 20.363281 M 10.546875 20.363281 L 10.472656 20.507812 Z M 10.546875 20.363281 "/>
  <path d="M 10.546875 20.4375 L 10.472656 20.582031 L 10.617188 20.582031 Z M 10.546875 20.4375 "/>
  <path d="M 19.417969 20.4375 L 19.492188 20.507812 L 19.417969 20.4375 M 4.871094 20.507812 L 4.945312 20.582031 L 4.871094 20.507812 M 10.183594 20.507812 L 10.253906 20.582031 L 10.183594 20.507812 M 13.746094 20.507812 L 13.816406 20.582031 L 13.746094 20.507812 M 13.964844 20.507812 L 14.035156 20.582031 L 13.964844 20.507812 M 16.65625 20.507812 L 16.726562 20.582031 L 16.65625 20.507812 M 5.089844 20.582031 L 5.164062 20.65625 L 5.089844 20.582031 M 7.273438 20.582031 L 7.34375 20.65625 L 7.273438 20.582031 M 16.871094 20.582031 L 16.945312 20.65625 L 16.871094 20.582031 M 18.980469 20.582031 L 19.054688 20.65625 L 18.980469 20.582031 M 5.382812 20.65625 L 5.453125 20.726562 L 5.382812 20.65625 M 7.03125 20.679688 L 7.078125 20.703125 L 7.03125 20.679688 M 17.210938 20.679688 L 17.261719 20.703125 L 17.210938 20.679688 M 18.667969 20.679688 L 18.714844 20.703125 Z M 18.667969 20.679688 "/>
  <path d="M 5.746094 20.726562 L 5.816406 20.800781 Z M 5.746094 20.726562 "/>
  <path d="M 5.816406 20.726562 L 5.816406 20.800781 L 6.617188 20.800781 Z M 5.816406 20.726562 "/>
  <path d="M 6.617188 20.726562 L 6.691406 20.800781 Z M 6.617188 20.726562 "/>
  <path d="M 10.109375 20.726562 L 10.183594 20.800781 L 10.109375 20.726562 M 13.625 20.777344 L 13.648438 20.824219 Z M 13.625 20.777344 "/>
  <path d="M 17.671875 20.726562 L 17.746094 20.800781 Z M 17.671875 20.726562 "/>
  <path d="M 17.746094 20.726562 L 17.746094 20.800781 L 18.183594 20.800781 Z M 17.746094 20.726562 "/>
  <path d="M 18.230469 20.75 L 18.277344 20.777344 Z M 18.230469 20.75 "/>
  <path d="M 10.640625 20.847656 L 10.667969 20.898438 L 10.640625 20.847656 M 14.546875 20.800781 L 14.617188 20.871094 L 14.546875 20.800781 M 9.601562 20.871094 L 9.671875 20.945312 Z M 9.601562 20.871094 "/>
  <path d="M 10.910156 20.871094 L 10.980469 20.945312 L 10.910156 20.871094 M 13.601562 20.871094 L 13.671875 20.945312 Z M 13.601562 20.871094 "/>
  <path d="M 9.238281 20.945312 L 9.308594 21.019531 Z M 9.238281 20.945312 "/>
  <path d="M 10.617188 20.945312 L 10.691406 21.019531 Z M 10.617188 20.945312 "/>
  <path d="M 10.933594 20.992188 L 10.957031 21.042969 L 10.933594 20.992188 M 9.382812 21.019531 L 9.308594 21.238281 L 9.382812 21.019531 M 13.964844 21.019531 L 14.035156 21.089844 L 13.964844 21.019531 M 14.789062 21.066406 L 14.8125 21.113281 L 14.789062 21.066406 M 9.527344 21.089844 L 9.601562 21.164062 L 9.527344 21.089844 M 9.964844 21.089844 L 10.035156 21.164062 L 9.964844 21.089844 M 13.550781 21.210938 L 13.574219 21.261719 L 13.550781 21.210938 M 14.835938 21.164062 L 14.910156 21.238281 L 14.835938 21.164062 M 5.671875 21.238281 L 5.746094 21.308594 Z M 5.671875 21.238281 "/>
  <path d="M 9.308594 21.238281 L 9.382812 21.308594 Z M 9.308594 21.238281 "/>
  <path d="M 10.691406 21.238281 L 10.761719 21.308594 Z M 10.691406 21.238281 "/>
  <path d="M 14.835938 21.238281 L 14.980469 21.382812 Z M 14.835938 21.238281 "/>
  <path d="M 5.890625 21.308594 L 5.964844 21.382812 L 5.890625 21.308594 M 8.363281 21.308594 L 8.4375 21.382812 L 8.363281 21.308594 M 9.238281 21.308594 L 9.382812 21.453125 Z M 9.238281 21.308594 "/>
  <path d="M 9.308594 21.308594 L 9.382812 21.382812 Z M 9.308594 21.308594 "/>
  <path d="M 14.835938 21.308594 L 14.910156 21.382812 L 14.835938 21.308594 M 6.109375 21.382812 L 6.183594 21.453125 L 6.109375 21.382812 M 8.144531 21.382812 L 8.21875 21.453125 L 8.144531 21.382812 M 10.980469 21.382812 L 11.054688 21.453125 L 10.980469 21.382812 M 14.328125 21.382812 L 14.398438 21.453125 L 14.328125 21.382812 M 16.074219 21.382812 L 16.144531 21.453125 Z M 16.074219 21.382812 "/>
  <path d="M 17.890625 21.382812 L 17.964844 21.453125 Z M 17.890625 21.382812 "/>
  <path d="M 17.964844 21.382812 L 18.035156 21.453125 L 17.964844 21.382812 M 6.472656 21.453125 L 6.546875 21.527344 Z M 6.472656 21.453125 "/>
  <path d="M 6.546875 21.453125 L 6.617188 21.527344 Z M 6.546875 21.453125 "/>
  <path d="M 7.832031 21.480469 L 7.878906 21.503906 L 7.832031 21.480469 M 16.414062 21.480469 L 16.460938 21.503906 Z M 16.414062 21.480469 "/>
  <path d="M 16.507812 21.453125 L 16.582031 21.527344 L 16.507812 21.453125 M 17.527344 21.453125 L 17.601562 21.527344 Z M 17.527344 21.453125 "/>
  <path d="M 17.601562 21.453125 L 17.671875 21.527344 L 17.601562 21.453125 M 19.054688 21.453125 L 19.128906 21.527344 L 19.054688 21.453125 M 5.164062 21.527344 L 5.238281 21.601562 L 5.164062 21.527344 M 10.761719 21.527344 L 10.835938 21.601562 L 10.761719 21.527344 M 13.453125 21.527344 L 13.527344 21.601562 L 13.453125 21.527344 M 5.382812 21.601562 L 5.453125 21.671875 L 5.382812 21.601562 M 18.691406 21.601562 L 18.761719 21.671875 L 18.691406 21.601562 M 18.472656 21.671875 L 18.546875 21.746094 L 18.472656 21.671875 M 19.78125 21.671875 L 19.855469 21.746094 L 19.78125 21.671875 M 5.816406 21.746094 L 5.890625 21.816406 L 5.816406 21.746094 M 18.253906 21.746094 L 18.328125 21.816406 L 18.253906 21.746094 M 6.035156 21.816406 L 6.109375 21.890625 L 6.035156 21.816406 M 7.855469 22.035156 L 8.074219 21.816406 L 7.855469 22.035156 M 16.144531 21.816406 L 16.21875 21.890625 L 16.144531 21.816406 M 19.417969 21.816406 L 19.492188 21.890625 L 19.417969 21.816406 M 4.871094 21.890625 L 4.945312 21.964844 L 4.871094 21.890625 M 6.328125 21.890625 L 6.328125 22.035156 L 6.472656 21.890625 Z M 6.328125 21.890625 "/>
  <path d="M 7.855469 21.890625 L 7.925781 21.964844 L 7.855469 21.890625 M 16.21875 21.890625 L 16.289062 21.964844 Z M 16.21875 21.890625 "/>
  <path d="M 16.289062 21.890625 L 16.363281 21.964844 L 16.289062 21.890625 M 17.671875 21.890625 L 17.816406 22.035156 L 17.816406 21.890625 L 17.671875 21.890625 M 19.199219 21.890625 L 19.273438 21.964844 L 19.199219 21.890625 M 5.164062 21.964844 L 5.238281 22.035156 Z M 5.164062 21.964844 "/>
  <path d="M 5.238281 21.964844 L 5.308594 22.035156 Z M 5.238281 21.964844 "/>
  <path d="M 7.78125 21.964844 L 7.855469 22.035156 Z M 7.78125 21.964844 "/>
  <path d="M 10.910156 21.964844 L 10.980469 22.035156 Z M 10.910156 21.964844 "/>
  <path d="M 13.308594 21.964844 L 13.382812 22.035156 Z M 13.308594 21.964844 "/>
  <path d="M 18.886719 21.988281 L 18.933594 22.011719 L 18.886719 21.988281 M 5.601562 22.035156 L 5.601562 22.109375 L 5.964844 22.109375 Z M 5.601562 22.035156 "/>
  <path d="M 5.964844 22.035156 L 5.964844 22.109375 L 6.183594 22.109375 Z M 5.964844 22.035156 "/>
  <path d="M 6.183594 22.035156 L 6.253906 22.109375 L 6.183594 22.035156 M 17.890625 22.035156 L 17.964844 22.109375 Z M 17.890625 22.035156 "/>
  <path d="M 17.964844 22.035156 L 17.964844 22.109375 L 18.183594 22.109375 Z M 17.964844 22.035156 "/>
  <path d="M 18.183594 22.035156 L 18.183594 22.109375 L 18.546875 22.109375 L 18.183594 22.035156 M 3.492188 22.253906 L 3.5625 22.328125 L 3.492188 22.253906 M 20.507812 22.253906 L 20.582031 22.328125 L 20.507812 22.253906 M 6.691406 22.472656 L 6.761719 22.546875 L 6.691406 22.472656 M 20 22.472656 L 20.074219 22.546875 L 20 22.472656 M 4.289062 22.546875 L 4.363281 22.617188 L 4.289062 22.546875 M 6.472656 22.546875 L 6.546875 22.617188 L 6.472656 22.546875 M 17.601562 22.546875 L 17.671875 22.617188 L 17.601562 22.546875 M 19.78125 22.546875 L 19.855469 22.617188 L 19.78125 22.546875 M 4.582031 22.617188 L 4.65625 22.691406 L 4.582031 22.617188 M 6.183594 22.617188 L 6.253906 22.691406 Z M 6.183594 22.617188 "/>
  <path d="M 7.371094 22.667969 L 7.394531 22.714844 L 7.371094 22.667969 M 16.800781 22.617188 L 16.871094 22.691406 Z M 16.800781 22.617188 "/>
  <path d="M 17.890625 22.617188 L 17.964844 22.691406 L 17.890625 22.617188 M 19.464844 22.640625 L 19.515625 22.667969 Z M 19.464844 22.640625 "/>
  <path d="M 5.019531 22.691406 L 5.089844 22.761719 Z M 5.019531 22.691406 "/>
  <path d="M 5.089844 22.691406 L 5.089844 22.761719 L 5.746094 22.761719 Z M 5.089844 22.691406 "/>
  <path d="M 5.746094 22.691406 L 5.816406 22.761719 Z M 5.746094 22.691406 "/>
  <path d="M 7.273438 22.691406 L 7.34375 22.761719 L 7.273438 22.691406 M 7.417969 22.691406 L 7.492188 22.761719 L 7.417969 22.691406 M 16.847656 22.714844 L 16.898438 22.738281 L 16.847656 22.714844 M 18.328125 22.691406 L 18.328125 22.761719 L 19.054688 22.761719 Z M 18.328125 22.691406 "/>
  <path d="M 19.054688 22.691406 L 19.128906 22.761719 Z M 19.054688 22.691406 "/>
  <path d="M 6.546875 22.835938 L 6.617188 22.910156 L 6.546875 22.835938 M 7.492188 22.835938 L 7.5625 22.910156 Z M 7.492188 22.835938 "/>
  <path d="M 8.507812 22.835938 L 8.582031 22.910156 Z M 8.507812 22.835938 "/>
  <path d="M 8.582031 22.835938 L 8.65625 22.910156 L 8.582031 22.835938 M 15.636719 22.835938 L 15.710938 22.910156 L 15.636719 22.835938 M 17.527344 22.835938 L 17.601562 22.910156 L 17.527344 22.835938 M 6.328125 22.910156 L 6.398438 22.980469 L 6.328125 22.910156 M 16.800781 22.910156 L 16.871094 22.980469 L 16.800781 22.910156 M 17.746094 22.910156 L 17.816406 22.980469 L 17.746094 22.910156 M 6.085938 23.007812 L 6.132812 23.03125 L 6.085938 23.007812 M 17.019531 22.980469 L 17.089844 23.054688 L 17.019531 22.980469 M 18.011719 23.007812 L 18.0625 23.03125 Z M 18.011719 23.007812 "/>
  <path d="M 5.574219 23.078125 L 5.625 23.101562 Z M 5.574219 23.078125 "/>
  <path d="M 5.671875 23.054688 L 5.746094 23.128906 L 5.671875 23.054688 M 6.8125 23.078125 L 6.859375 23.101562 L 6.8125 23.078125 M 17.285156 23.078125 L 17.332031 23.101562 L 17.285156 23.078125 M 18.398438 23.054688 L 18.472656 23.128906 Z M 18.398438 23.054688 "/>
  <path d="M 18.472656 23.054688 L 18.546875 23.128906 Z M 18.472656 23.054688 "/>
  <path d="M 5.746094 23.128906 L 5.816406 23.199219 Z M 5.746094 23.128906 "/>
  <path d="M 5.816406 23.128906 L 5.816406 23.199219 L 6.398438 23.199219 Z M 5.816406 23.128906 "/>
  <path d="M 6.398438 23.128906 L 6.472656 23.199219 L 6.398438 23.128906 M 17.671875 23.128906 L 17.746094 23.199219 Z M 17.671875 23.128906 "/>
  <path d="M 17.746094 23.128906 L 17.746094 23.199219 L 18.328125 23.199219 Z M 17.746094 23.128906 "/>
  <path d="M 18.328125 23.128906 L 18.398438 23.199219 Z M 18.328125 23.128906 "/>
  <path d="M 16.21875 23.273438 L 16.289062 23.34375 L 16.21875 23.273438 M 7.636719 23.34375 L 7.710938 23.417969 L 7.636719 23.34375 M 16.4375 23.34375 L 16.507812 23.417969 L 16.4375 23.34375 M 12.074219 23.492188 L 12.144531 23.5625 Z M 12.074219 23.492188 "/>
</svg>
