<svg xmlns="http://www.w3.org/2000/svg" height="24" viewBox="0 0 24 24" width="24">
  <path d="M 12.960938 5.761719 C 12.960938 6.289062 12.53125 6.71875 12 6.71875 C 11.46875 6.71875 11.039062 6.289062 11.039062 5.761719 C 11.039062 5.230469 11.46875 4.800781 12 4.800781 C 12.53125 4.800781 12.960938 5.230469 12.960938 5.761719 Z M 12.960938 5.761719 "/>
  <path d="M 7.554688 8.878906 C 7.554688 9.410156 7.125 9.839844 6.597656 9.839844 C 6.066406 9.839844 5.636719 9.410156 5.636719 8.878906 C 5.636719 8.351562 6.066406 7.921875 6.597656 7.921875 C 7.125 7.921875 7.554688 8.351562 7.554688 8.878906 Z M 7.554688 8.878906 "/>
  <path d="M 7.554688 15.121094 C 7.554688 15.648438 7.125 16.078125 6.597656 16.078125 C 6.066406 16.078125 5.636719 15.648438 5.636719 15.121094 C 5.636719 14.589844 6.066406 14.160156 6.597656 14.160156 C 7.125 14.160156 7.554688 14.589844 7.554688 15.121094 Z M 7.554688 15.121094 "/>
  <path d="M 12.960938 18.238281 C 12.960938 18.769531 12.53125 19.199219 12 19.199219 C 11.46875 19.199219 11.039062 18.769531 11.039062 18.238281 C 11.039062 17.710938 11.46875 17.28125 12 17.28125 C 12.53125 17.28125 12.960938 17.710938 12.960938 18.238281 Z M 12.960938 18.238281 "/>
  <path d="M 18.363281 15.121094 C 18.363281 15.648438 17.933594 16.078125 17.402344 16.078125 C 16.875 16.078125 16.445312 15.648438 16.445312 15.121094 C 16.445312 14.589844 16.875 14.160156 17.402344 14.160156 C 17.933594 14.160156 18.363281 14.589844 18.363281 15.121094 Z M 18.363281 15.121094 "/>
  <path d="M 18.363281 8.878906 C 18.363281 9.410156 17.933594 9.839844 17.402344 9.839844 C 16.875 9.839844 16.445312 9.410156 16.445312 8.878906 C 16.445312 8.351562 16.875 7.921875 17.402344 7.921875 C 17.933594 7.921875 18.363281 8.351562 18.363281 8.878906 Z M 18.363281 8.878906 "/>
  <path d="M 4.800781 12 C 4.800781 12.398438 4.476562 12.71875 4.078125 12.71875 C 3.683594 12.71875 3.359375 12.398438 3.359375 12 C 3.359375 11.601562 3.683594 11.28125 4.078125 11.28125 C 4.476562 11.28125 4.800781 11.601562 4.800781 12 Z M 4.800781 12 "/>
  <path d="M 8.761719 18.859375 C 8.761719 19.257812 8.4375 19.578125 8.039062 19.578125 C 7.640625 19.578125 7.320312 19.257812 7.320312 18.859375 C 7.320312 18.460938 7.640625 18.140625 8.039062 18.140625 C 8.4375 18.140625 8.761719 18.460938 8.761719 18.859375 Z M 8.761719 18.859375 "/>
  <path d="M 16.679688 18.859375 C 16.679688 19.257812 16.359375 19.578125 15.960938 19.578125 C 15.5625 19.578125 15.238281 19.257812 15.238281 18.859375 C 15.238281 18.460938 15.5625 18.140625 15.960938 18.140625 C 16.359375 18.140625 16.679688 18.460938 16.679688 18.859375 Z M 16.679688 18.859375 "/>
  <path d="M 20.640625 12 C 20.640625 12.398438 20.316406 12.71875 19.921875 12.71875 C 19.523438 12.71875 19.199219 12.398438 19.199219 12 C 19.199219 11.601562 19.523438 11.28125 19.921875 11.28125 C 20.316406 11.28125 20.640625 11.601562 20.640625 12 Z M 20.640625 12 "/>
  <path d="M 16.679688 5.140625 C 16.679688 5.539062 16.359375 5.859375 15.960938 5.859375 C 15.5625 5.859375 15.238281 5.539062 15.238281 5.140625 C 15.238281 4.742188 15.5625 4.421875 15.960938 4.421875 C 16.359375 4.421875 16.679688 4.742188 16.679688 5.140625 Z M 16.679688 5.140625 "/>
  <path d="M 8.761719 5.140625 C 8.761719 5.539062 8.4375 5.859375 8.039062 5.859375 C 7.640625 5.859375 7.320312 5.539062 7.320312 5.140625 C 7.320312 4.742188 7.640625 4.421875 8.039062 4.421875 C 8.4375 4.421875 8.761719 4.742188 8.761719 5.140625 Z M 8.761719 5.140625 "/>
  <path d="M 1.441406 12 C 1.441406 12.265625 1.226562 12.480469 0.960938 12.480469 C 0.695312 12.480469 0.480469 12.265625 0.480469 12 C 0.480469 11.734375 0.695312 11.519531 0.960938 11.519531 C 1.226562 11.519531 1.441406 11.734375 1.441406 12 Z M 1.441406 12 "/>
  <path d="M 6.960938 21.5625 C 6.960938 21.828125 6.746094 22.042969 6.480469 22.042969 C 6.214844 22.042969 6 21.828125 6 21.5625 C 6 21.296875 6.214844 21.082031 6.480469 21.082031 C 6.746094 21.082031 6.960938 21.296875 6.960938 21.5625 Z M 6.960938 21.5625 "/>
  <path d="M 18 21.5625 C 18 21.828125 17.785156 22.042969 17.519531 22.042969 C 17.253906 22.042969 17.039062 21.828125 17.039062 21.5625 C 17.039062 21.296875 17.253906 21.082031 17.519531 21.082031 C 17.785156 21.082031 18 21.296875 18 21.5625 Z M 18 21.5625 "/>
  <path d="M 23.519531 12 C 23.519531 12.265625 23.304688 12.480469 23.039062 12.480469 C 22.773438 12.480469 22.558594 12.265625 22.558594 12 C 22.558594 11.734375 22.773438 11.519531 23.039062 11.519531 C 23.304688 11.519531 23.519531 11.734375 23.519531 12 Z M 23.519531 12 "/>
  <path d="M 18 2.4375 C 18 2.703125 17.785156 2.917969 17.519531 2.917969 C 17.253906 2.917969 17.039062 2.703125 17.039062 2.4375 C 17.039062 2.171875 17.253906 1.957031 17.519531 1.957031 C 17.785156 1.957031 18 2.171875 18 2.4375 Z M 18 2.4375 "/>
  <path d="M 6.960938 2.4375 C 6.960938 2.703125 6.746094 2.917969 6.480469 2.917969 C 6.214844 2.917969 6 2.703125 6 2.4375 C 6 2.171875 6.214844 1.957031 6.480469 1.957031 C 6.746094 1.957031 6.960938 2.171875 6.960938 2.4375 Z M 6.960938 2.4375 "/>
  <path d="M 12.71875 2.160156 C 12.71875 2.558594 12.398438 2.878906 12 2.878906 C 11.601562 2.878906 11.28125 2.558594 11.28125 2.160156 C 11.28125 1.761719 11.601562 1.441406 12 1.441406 C 12.398438 1.441406 12.71875 1.761719 12.71875 2.160156 Z M 12.71875 2.160156 "/>
  <path d="M 4.199219 7.078125 C 4.199219 7.476562 3.875 7.800781 3.476562 7.800781 C 3.082031 7.800781 2.757812 7.476562 2.757812 7.078125 C 2.757812 6.683594 3.082031 6.359375 3.476562 6.359375 C 3.875 6.359375 4.199219 6.683594 4.199219 7.078125 Z M 4.199219 7.078125 "/>
  <path d="M 4.199219 16.921875 C 4.199219 17.316406 3.875 17.640625 3.476562 17.640625 C 3.082031 17.640625 2.757812 17.316406 2.757812 16.921875 C 2.757812 16.523438 3.082031 16.199219 3.476562 16.199219 C 3.875 16.199219 4.199219 16.523438 4.199219 16.921875 Z M 4.199219 16.921875 "/>
  <path d="M 12.71875 21.839844 C 12.71875 22.238281 12.398438 22.558594 12 22.558594 C 11.601562 22.558594 11.28125 22.238281 11.28125 21.839844 C 11.28125 21.441406 11.601562 21.121094 12 21.121094 C 12.398438 21.121094 12.71875 21.441406 12.71875 21.839844 Z M 12.71875 21.839844 "/>
  <path d="M 21.242188 16.921875 C 21.242188 17.316406 20.917969 17.640625 20.523438 17.640625 C 20.125 17.640625 19.800781 17.316406 19.800781 16.921875 C 19.800781 16.523438 20.125 16.199219 20.523438 16.199219 C 20.917969 16.199219 21.242188 16.523438 21.242188 16.921875 Z M 21.242188 16.921875 "/>
  <path d="M 21.242188 7.078125 C 21.242188 7.476562 20.917969 7.800781 20.523438 7.800781 C 20.125 7.800781 19.800781 7.476562 19.800781 7.078125 C 19.800781 6.683594 20.125 6.359375 20.523438 6.359375 C 20.917969 6.359375 21.242188 6.683594 21.242188 7.078125 Z M 21.242188 7.078125 "/>
  <path d="M 9.601562 12 C 9.601562 12.796875 8.957031 13.441406 8.160156 13.441406 C 7.363281 13.441406 6.71875 12.796875 6.71875 12 C 6.71875 11.203125 7.363281 10.558594 8.160156 10.558594 C 8.957031 10.558594 9.601562 11.203125 9.601562 12 Z M 9.601562 12 "/>
  <path d="M 17.28125 12 C 17.28125 12.796875 16.636719 13.441406 15.839844 13.441406 C 15.042969 13.441406 14.398438 12.796875 14.398438 12 C 14.398438 11.203125 15.042969 10.558594 15.839844 10.558594 C 16.636719 10.558594 17.28125 11.203125 17.28125 12 Z M 17.28125 12 "/>
  <path d="M 11.519531 8.640625 C 11.519531 9.433594 10.875 10.078125 10.078125 10.078125 C 9.285156 10.078125 8.640625 9.433594 8.640625 8.640625 C 8.640625 7.84375 9.285156 7.199219 10.078125 7.199219 C 10.875 7.199219 11.519531 7.84375 11.519531 8.640625 Z M 11.519531 8.640625 "/>
  <path d="M 15.359375 8.640625 C 15.359375 9.433594 14.714844 10.078125 13.921875 10.078125 C 13.125 10.078125 12.480469 9.433594 12.480469 8.640625 C 12.480469 7.84375 13.125 7.199219 13.921875 7.199219 C 14.714844 7.199219 15.359375 7.84375 15.359375 8.640625 Z M 15.359375 8.640625 "/>
  <path d="M 11.519531 15.359375 C 11.519531 16.15625 10.875 16.800781 10.078125 16.800781 C 9.285156 16.800781 8.640625 16.15625 8.640625 15.359375 C 8.640625 14.566406 9.285156 13.921875 10.078125 13.921875 C 10.875 13.921875 11.519531 14.566406 11.519531 15.359375 Z M 11.519531 15.359375 "/>
  <path d="M 15.359375 15.359375 C 15.359375 16.15625 14.714844 16.800781 13.921875 16.800781 C 13.125 16.800781 12.480469 16.15625 12.480469 15.359375 C 12.480469 14.566406 13.125 13.921875 13.921875 13.921875 C 14.714844 13.921875 15.359375 14.566406 15.359375 15.359375 Z M 15.359375 15.359375 "/>
</svg>
