<svg xmlns="http://www.w3.org/2000/svg" height="24" viewBox="0 0 24 24" width="24">
  <path opacity="0.3" fill-rule="evenodd" clip-rule="evenodd" d="M19 19H5V5H19V19ZM9.99 14.18L7.41 11.6L6 13.01L9.99 17L17.99 9L16.58 7.59L9.99 14.18Z" />
  <path fill-rule="evenodd" clip-rule="evenodd" d="M5 3H19C20.1 3 21 3.9 21 5V19C21 20.1 20.1 21 19 21H5C3.9 21 3 20.1 3 19V5C3 3.9 3.9 3 5 3ZM5 19H19V5H5V19Z" />
  <path d="M17.99 8.99999L16.58 7.57999L9.98999 14.17L7.40999 11.6L5.98999 13.01L9.98999 17L17.99 8.99999Z" />
</svg>
