<svg xmlns="http://www.w3.org/2000/svg" height="24" viewBox="0 0 24 24" width="24">
  <path opacity="0.3" d="M17.4999 8C17.9599 8 18.4099 7.95 18.8399 7.88C17.4399 5.56 14.8999 4 11.9999 4C11.5399 4 11.0899 4.05 10.6599 4.12C12.0599 6.44 14.5999 8 17.4999 8Z"/>
  <path opacity="0.3" d="M8.07992 5.03C6.36992 6 5.04992 7.58 4.41992 9.47C6.12992 8.5 7.44992 6.92 8.07992 5.03Z"/>
  <path fill-rule="evenodd" clip-rule="evenodd" d="M2 12C2 6.48 6.48 2 12 2C17.52 2 22 6.48 22 12C22 17.52 17.52 22 12 22C6.48 22 2 17.52 2 12ZM18.84 7.88C17.44 5.56 14.9 4 12 4C11.54 4 11.09 4.05 10.66 4.12C12.06 6.44 14.6 8 17.5 8C17.96 8 18.41 7.95 18.84 7.88ZM8.08 5.03C7.45 6.92 6.13 8.5 4.42 9.47C5.05 7.58 6.37 6 8.08 5.03ZM4 12C4 16.41 7.59 20 12 20C16.41 20 20 16.41 20 12C20 11.22 19.88 10.47 19.67 9.76C18.97 9.91 18.25 10 17.5 10C14.37 10 11.58 8.56 9.75 6.3C8.69 8.86 6.61 10.87 4.01 11.85C4.01 11.875 4.0075 11.9 4.005 11.925C4.0025 11.95 4 11.975 4 12Z"/>
  <path d="M9 14.25C9.69036 14.25 10.25 13.6904 10.25 13C10.25 12.3096 9.69036 11.75 9 11.75C8.30964 11.75 7.75 12.3096 7.75 13C7.75 13.6904 8.30964 14.25 9 14.25Z"/>
  <path d="M15 14.25C15.6904 14.25 16.25 13.6904 16.25 13C16.25 12.3096 15.6904 11.75 15 11.75C14.3096 11.75 13.75 12.3096 13.75 13C13.75 13.6904 14.3096 14.25 15 14.25Z"/>
</svg>
