<svg xmlns="http://www.w3.org/2000/svg" height="24" viewBox="0 0 24 24" width="24">
  <path opacity="0.3" fill-rule="evenodd" clip-rule="evenodd" d="M18.58 7.39L19.28 8.6L18.18 9.44L17.29 10.14L17.43 11.27C17.46 11.57 17.48 11.79 17.48 12C17.48 12.21 17.47 12.42 17.43 12.73L17.29 13.86L18.18 14.56L19.26 15.4L18.56 16.61L17.29 16.1L16.25 15.68L15.35 16.36C14.92 16.68 14.51 16.92 14.1 17.09L13.04 17.52L12.88 18.65L12.69 20H11.3L11.11 18.64L10.95 17.51L9.88997 17.08C9.45997 16.91 9.04997 16.67 8.65997 16.37L7.74997 15.67L6.68997 16.1L5.41997 16.61L4.71997 15.4L5.79997 14.56L6.68997 13.86L6.54997 12.73C6.51997 12.43 6.49997 12.2 6.49997 12C6.49997 11.8 6.51997 11.57 6.54997 11.27L6.68997 10.14L5.79997 9.44L4.71997 8.6L5.41997 7.39L6.68997 7.91L7.73997 8.33L8.63997 7.65C9.06997 7.33 9.47997 7.09 9.88997 6.92L10.95 6.48L11.11 5.35L11.3 4H12.7L12.89 5.36L13.05 6.49L14.11 6.92C14.54 7.09 14.95 7.33 15.34 7.63L16.25 8.33L17.31 7.9L18.58 7.39ZM7.99997 12C7.99997 14.21 9.78997 16 12 16C14.21 16 16 14.21 16 12C16 9.79 14.21 8 12 8C9.78997 8 7.99997 9.79 7.99997 12Z" />
  <path fill-rule="evenodd" clip-rule="evenodd" d="M19.5 12C19.5 12.34 19.47 12.66 19.43 12.98L21.54 14.63C21.73 14.78 21.78 15.05 21.66 15.27L19.66 18.73C19.57 18.89 19.4 18.98 19.23 18.98C19.17 18.98 19.11 18.97 19.05 18.95L16.56 17.95C16.04 18.34 15.48 18.68 14.87 18.93L14.49 21.58C14.46 21.82 14.25 22 14 22H9.99996C9.74996 22 9.53996 21.82 9.50996 21.58L9.12996 18.93C8.51996 18.68 7.95996 18.35 7.43996 17.95L4.94996 18.95C4.89996 18.97 4.83996 18.98 4.77996 18.98C4.59996 18.98 4.42996 18.89 4.33996 18.73L2.33996 15.27C2.21996 15.05 2.26996 14.78 2.45996 14.63L4.56996 12.98C4.52996 12.66 4.49996 12.33 4.49996 12C4.49996 11.67 4.52996 11.34 4.56996 11.02L2.45996 9.37C2.26996 9.22 2.20996 8.95 2.33996 8.73L4.33996 5.27C4.42996 5.11 4.59996 5.02 4.76996 5.02C4.82996 5.02 4.88996 5.03 4.94996 5.05L7.43996 6.05C7.95996 5.66 8.51996 5.32 9.12996 5.07L9.50996 2.42C9.53996 2.18 9.74996 2 9.99996 2H14C14.25 2 14.46 2.18 14.49 2.42L14.87 5.07C15.48 5.32 16.04 5.65 16.56 6.05L19.05 5.05C19.1 5.03 19.16 5.02 19.22 5.02C19.4 5.02 19.57 5.11 19.66 5.27L21.66 8.73C21.78 8.95 21.73 9.22 21.54 9.37L19.43 11.02C19.47 11.34 19.5 11.66 19.5 12ZM17.5 12C17.5 11.79 17.49 11.58 17.45 11.27L17.31 10.14L18.2 9.44L19.27 8.59L18.57 7.38L17.3 7.89L16.24 8.32L15.33 7.62C14.93 7.32 14.53 7.09 14.1 6.91L13.04 6.48L12.88 5.35L12.69 4H11.3L11.1 5.35L10.94 6.48L9.87996 6.91C9.46996 7.08 9.05996 7.32 8.62996 7.64L7.72996 8.32L6.68996 7.9L5.41996 7.39L4.71996 8.6L5.79996 9.44L6.68996 10.14L6.54996 11.27C6.51996 11.57 6.49996 11.8 6.49996 12C6.49996 12.2 6.51996 12.43 6.54996 12.74L6.68996 13.87L5.79996 14.57L4.71996 15.41L5.41996 16.62L6.68996 16.11L7.74996 15.68L8.65996 16.38C9.05996 16.68 9.45996 16.91 9.88996 17.09L10.95 17.52L11.11 18.65L11.3 20H12.7L12.9 18.65L13.06 17.52L14.12 17.09C14.53 16.92 14.94 16.68 15.37 16.36L16.27 15.68L17.31 16.1L18.58 16.61L19.28 15.4L18.2 14.56L17.31 13.86L17.45 12.73C17.48 12.43 17.5 12.21 17.5 12Z" />
  <path fill-rule="evenodd" clip-rule="evenodd" d="M8 12C8 9.79 9.79 8 12 8C14.21 8 16 9.79 16 12C16 14.21 14.21 16 12 16C9.79 16 8 14.21 8 12ZM10 12C10 13.1 10.9 14 12 14C13.1 14 14 13.1 14 12C14 10.9 13.1 10 12 10C10.9 10 10 10.9 10 12Z" />
</svg>
